<?xml version="1.0" encoding="utf-8"?>
<!-- Generator: Adobe Illustrator 16.0.0, SVG Export Plug-In . SVG Version: 6.00 Build 0)  -->
<!DOCTYPE svg PUBLIC "-//W3C//DTD SVG 1.1//EN" "http://www.w3.org/Graphics/SVG/1.1/DTD/svg11.dtd">
<svg version="1.1" id="Layer_1" xmlns="http://www.w3.org/2000/svg" xmlns:xlink="http://www.w3.org/1999/xlink" x="0px" y="0px"
	 width="396px" height="396px" viewBox="0 0 396 396" enable-background="new 0 0 396 396" xml:space="preserve">
<g>
	<g>
		<path fill="#008CFF" d="M0,387.02c0-1.659,1.34-3,3-3l0,0c1.66,0,3,1.341,3,3l0,0c0,1.66-1.34,3-3,3l0,0
			C1.34,390.02,0,388.68,0,387.02z M0,366.02c0-1.659,1.34-3,3-3l0,0c1.66,0,3,1.341,3,3l0,0c0,1.65-1.34,3-3,3l0,0
			C1.34,369.02,0,367.67,0,366.02z M0,345.02c0-1.659,1.34-3,3-3l0,0c1.66,0,3,1.341,3,3l0,0c0,1.65-1.34,3-3,3l0,0
			C1.34,348.02,0,346.67,0,345.02z M0,324.01c0-1.649,1.34-3,3-3l0,0c1.66,0,3,1.351,3,3l0,0c0,1.66-1.34,3-3,3l0,0
			C1.34,327.01,0,325.67,0,324.01z M0,303.01c0-1.66,1.34-3,3-3l0,0c1.66,0,3,1.34,3,3l0,0c0,1.66-1.34,3-3,3l0,0
			C1.34,306.01,0,304.67,0,303.01z M0,282.01c0-1.66,1.34-3,3-3l0,0c1.66,0,3,1.34,3,3l0,0c0,1.65-1.34,3-3,3l0,0
			C1.34,285.01,0,283.66,0,282.01z M0,261.01c0-1.66,1.34-3,3-3l0,0c1.66,0,3,1.34,3,3l0,0c0,1.65-1.34,3-3,3l0,0
			C1.34,264.01,0,262.66,0,261.01z M0,240c0-1.65,1.34-3,3-3l0,0c1.66,0,3,1.35,3,3l0,0c0,1.66-1.34,3-3,3l0,0
			C1.34,243,0,241.66,0,240z M0,219c0-1.66,1.34-3,3-3l0,0c1.66,0,3,1.34,3,3l0,0c0,1.66-1.34,3-3,3l0,0C1.34,222,0,220.66,0,219z
			 M0,198c0-1.66,1.34-3,3-3l0,0c1.66,0,3,1.34,3,3l0,0c0,1.66-1.34,3-3,3l0,0C1.34,201,0,199.66,0,198z M0,177c0-1.66,1.34-3,3-3
			l0,0c1.66,0,3,1.34,3,3l0,0c0,1.65-1.34,3-3,3l0,0C1.34,180,0,178.65,0,177z M0,155.99c0-1.65,1.34-3,3-3l0,0c1.66,0,3,1.35,3,3
			l0,0c0,1.66-1.34,3-3,3l0,0C1.34,158.99,0,157.65,0,155.99z M0,134.99c0-1.65,1.34-3,3-3l0,0c1.66,0,3,1.35,3,3l0,0
			c0,1.66-1.34,3-3,3l0,0C1.34,137.99,0,136.65,0,134.99z M0,113.99c0-1.66,1.34-3,3-3l0,0c1.66,0,3,1.34,3,3l0,0c0,1.66-1.34,3-3,3
			l0,0C1.34,116.99,0,115.65,0,113.99z M0,92.99c0-1.66,1.34-3,3-3l0,0c1.66,0,3,1.34,3,3l0,0c0,1.65-1.34,3-3,3l0,0
			C1.34,95.99,0,94.64,0,92.99z M0,71.99c0-1.66,1.34-3,3-3l0,0c1.66,0,3,1.34,3,3l0,0c0,1.65-1.34,3-3,3l0,0
			C1.34,74.99,0,73.64,0,71.99z M0,50.98c0-1.65,1.34-3,3-3l0,0c1.66,0,3,1.35,3,3l0,0c0,1.66-1.34,3-3,3l0,0
			C1.34,53.98,0,52.64,0,50.98z M0,29.98c0-1.66,1.34-3,3-3l0,0c1.66,0,3,1.34,3,3l0,0c0,1.66-1.34,3-3,3l0,0
			C1.34,32.98,0,31.64,0,29.98z M0,8.98c0-1.66,1.34-3,3-3l0,0c1.66,0,3,1.34,3,3l0,0c0,1.65-1.34,3-3,3l0,0
			C1.34,11.98,0,10.63,0,8.98z"/>
		<path fill="#008CFF" d="M20.78,387.02c0-1.659,1.34-3,3-3l0,0c1.66,0,3,1.341,3,3l0,0c0,1.66-1.34,3-3,3l0,0
			C22.12,390.02,20.78,388.68,20.78,387.02z M20.78,366.02c0-1.659,1.34-3,3-3l0,0c1.66,0,3,1.341,3,3l0,0c0,1.65-1.34,3-3,3l0,0
			C22.12,369.02,20.78,367.67,20.78,366.02z M20.78,345.02c0-1.659,1.34-3,3-3l0,0c1.66,0,3,1.341,3,3l0,0c0,1.65-1.34,3-3,3l0,0
			C22.12,348.02,20.78,346.67,20.78,345.02z M20.78,324.01c0-1.649,1.34-3,3-3l0,0c1.66,0,3,1.351,3,3l0,0c0,1.66-1.34,3-3,3l0,0
			C22.12,327.01,20.78,325.67,20.78,324.01z M20.78,303.01c0-1.66,1.34-3,3-3l0,0c1.66,0,3,1.34,3,3l0,0c0,1.66-1.34,3-3,3l0,0
			C22.12,306.01,20.78,304.67,20.78,303.01z M20.78,282.01c0-1.66,1.34-3,3-3l0,0c1.66,0,3,1.34,3,3l0,0c0,1.65-1.34,3-3,3l0,0
			C22.12,285.01,20.78,283.66,20.78,282.01z M20.78,261.01c0-1.66,1.34-3,3-3l0,0c1.66,0,3,1.34,3,3l0,0c0,1.65-1.34,3-3,3l0,0
			C22.12,264.01,20.78,262.66,20.78,261.01z M20.78,240c0-1.65,1.34-3,3-3l0,0c1.66,0,3,1.35,3,3l0,0c0,1.66-1.34,3-3,3l0,0
			C22.12,243,20.78,241.66,20.78,240z M20.78,219c0-1.66,1.34-3,3-3l0,0c1.66,0,3,1.34,3,3l0,0c0,1.66-1.34,3-3,3l0,0
			C22.12,222,20.78,220.66,20.78,219z M20.78,198c0-1.66,1.34-3,3-3l0,0c1.66,0,3,1.34,3,3l0,0c0,1.66-1.34,3-3,3l0,0
			C22.12,201,20.78,199.66,20.78,198z M20.78,177c0-1.66,1.34-3,3-3l0,0c1.66,0,3,1.34,3,3l0,0c0,1.65-1.34,3-3,3l0,0
			C22.12,180,20.78,178.65,20.78,177z M20.78,155.99c0-1.65,1.34-3,3-3l0,0c1.66,0,3,1.35,3,3l0,0c0,1.66-1.34,3-3,3l0,0
			C22.12,158.99,20.78,157.65,20.78,155.99z M20.78,134.99c0-1.65,1.34-3,3-3l0,0c1.66,0,3,1.35,3,3l0,0c0,1.66-1.34,3-3,3l0,0
			C22.12,137.99,20.78,136.65,20.78,134.99z M20.78,113.99c0-1.66,1.34-3,3-3l0,0c1.66,0,3,1.34,3,3l0,0c0,1.66-1.34,3-3,3l0,0
			C22.12,116.99,20.78,115.65,20.78,113.99z M20.78,92.99c0-1.66,1.34-3,3-3l0,0c1.66,0,3,1.34,3,3l0,0c0,1.65-1.34,3-3,3l0,0
			C22.12,95.99,20.78,94.64,20.78,92.99z M20.78,71.99c0-1.66,1.34-3,3-3l0,0c1.66,0,3,1.34,3,3l0,0c0,1.65-1.34,3-3,3l0,0
			C22.12,74.99,20.78,73.64,20.78,71.99z M20.78,50.98c0-1.65,1.34-3,3-3l0,0c1.66,0,3,1.35,3,3l0,0c0,1.66-1.34,3-3,3l0,0
			C22.12,53.98,20.78,52.64,20.78,50.98z M20.78,29.98c0-1.66,1.34-3,3-3l0,0c1.66,0,3,1.34,3,3l0,0c0,1.66-1.34,3-3,3l0,0
			C22.12,32.98,20.78,31.64,20.78,29.98z M20.78,8.98c0-1.66,1.34-3,3-3l0,0c1.66,0,3,1.34,3,3l0,0c0,1.65-1.34,3-3,3l0,0
			C22.12,11.98,20.78,10.63,20.78,8.98z"/>
		<path fill="#008CFF" d="M41.56,387.02c0-1.659,1.34-3,3-3l0,0c1.65,0,3,1.341,3,3l0,0c0,1.66-1.35,3-3,3l0,0
			C42.9,390.02,41.56,388.68,41.56,387.02z M41.56,366.02c0-1.659,1.34-3,3-3l0,0c1.65,0,3,1.341,3,3l0,0c0,1.65-1.35,3-3,3l0,0
			C42.9,369.02,41.56,367.67,41.56,366.02z M41.56,345.02c0-1.659,1.34-3,3-3l0,0c1.65,0,3,1.341,3,3l0,0c0,1.65-1.35,3-3,3l0,0
			C42.9,348.02,41.56,346.67,41.56,345.02z M41.56,324.01c0-1.649,1.34-3,3-3l0,0c1.65,0,3,1.351,3,3l0,0c0,1.66-1.35,3-3,3l0,0
			C42.9,327.01,41.56,325.67,41.56,324.01z M41.56,303.01c0-1.66,1.34-3,3-3l0,0c1.65,0,3,1.34,3,3l0,0c0,1.66-1.35,3-3,3l0,0
			C42.9,306.01,41.56,304.67,41.56,303.01z M41.56,282.01c0-1.66,1.34-3,3-3l0,0c1.65,0,3,1.34,3,3l0,0c0,1.65-1.35,3-3,3l0,0
			C42.9,285.01,41.56,283.66,41.56,282.01z M41.56,261.01c0-1.66,1.34-3,3-3l0,0c1.65,0,3,1.34,3,3l0,0c0,1.65-1.35,3-3,3l0,0
			C42.9,264.01,41.56,262.66,41.56,261.01z M41.56,240c0-1.65,1.34-3,3-3l0,0c1.65,0,3,1.35,3,3l0,0c0,1.66-1.35,3-3,3l0,0
			C42.9,243,41.56,241.66,41.56,240z M41.56,219c0-1.66,1.34-3,3-3l0,0c1.65,0,3,1.34,3,3l0,0c0,1.66-1.35,3-3,3l0,0
			C42.9,222,41.56,220.66,41.56,219z M41.56,198c0-1.66,1.34-3,3-3l0,0c1.65,0,3,1.34,3,3l0,0c0,1.66-1.35,3-3,3l0,0
			C42.9,201,41.56,199.66,41.56,198z M41.56,177c0-1.66,1.34-3,3-3l0,0c1.65,0,3,1.34,3,3l0,0c0,1.65-1.35,3-3,3l0,0
			C42.9,180,41.56,178.65,41.56,177z M41.56,155.99c0-1.65,1.34-3,3-3l0,0c1.65,0,3,1.35,3,3l0,0c0,1.66-1.35,3-3,3l0,0
			C42.9,158.99,41.56,157.65,41.56,155.99z M41.56,134.99c0-1.65,1.34-3,3-3l0,0c1.65,0,3,1.35,3,3l0,0c0,1.66-1.35,3-3,3l0,0
			C42.9,137.99,41.56,136.65,41.56,134.99z M41.56,113.99c0-1.66,1.34-3,3-3l0,0c1.65,0,3,1.34,3,3l0,0c0,1.66-1.35,3-3,3l0,0
			C42.9,116.99,41.56,115.65,41.56,113.99z M41.56,92.99c0-1.66,1.34-3,3-3l0,0c1.65,0,3,1.34,3,3l0,0c0,1.65-1.35,3-3,3l0,0
			C42.9,95.99,41.56,94.64,41.56,92.99z M41.56,71.99c0-1.66,1.34-3,3-3l0,0c1.65,0,3,1.34,3,3l0,0c0,1.65-1.35,3-3,3l0,0
			C42.9,74.99,41.56,73.64,41.56,71.99z M41.56,50.98c0-1.65,1.34-3,3-3l0,0c1.65,0,3,1.35,3,3l0,0c0,1.66-1.35,3-3,3l0,0
			C42.9,53.98,41.56,52.64,41.56,50.98z M41.56,29.98c0-1.66,1.34-3,3-3l0,0c1.65,0,3,1.34,3,3l0,0c0,1.66-1.35,3-3,3l0,0
			C42.9,32.98,41.56,31.64,41.56,29.98z M41.56,8.98c0-1.66,1.34-3,3-3l0,0c1.65,0,3,1.34,3,3l0,0c0,1.65-1.35,3-3,3l0,0
			C42.9,11.98,41.56,10.63,41.56,8.98z"/>
		<path fill="#008CFF" d="M62.34,387.02c0-1.659,1.34-3,3-3l0,0c1.65,0,3,1.341,3,3l0,0c0,1.66-1.35,3-3,3l0,0
			C63.68,390.02,62.34,388.68,62.34,387.02z M62.34,366.02c0-1.659,1.34-3,3-3l0,0c1.65,0,3,1.341,3,3l0,0c0,1.65-1.35,3-3,3l0,0
			C63.68,369.02,62.34,367.67,62.34,366.02z M62.34,345.02c0-1.659,1.34-3,3-3l0,0c1.65,0,3,1.341,3,3l0,0c0,1.65-1.35,3-3,3l0,0
			C63.68,348.02,62.34,346.67,62.34,345.02z M62.34,324.01c0-1.649,1.34-3,3-3l0,0c1.65,0,3,1.351,3,3l0,0c0,1.66-1.35,3-3,3l0,0
			C63.68,327.01,62.34,325.67,62.34,324.01z M62.34,303.01c0-1.66,1.34-3,3-3l0,0c1.65,0,3,1.34,3,3l0,0c0,1.66-1.35,3-3,3l0,0
			C63.68,306.01,62.34,304.67,62.34,303.01z M62.34,282.01c0-1.66,1.34-3,3-3l0,0c1.65,0,3,1.34,3,3l0,0c0,1.65-1.35,3-3,3l0,0
			C63.68,285.01,62.34,283.66,62.34,282.01z M62.34,261.01c0-1.66,1.34-3,3-3l0,0c1.65,0,3,1.34,3,3l0,0c0,1.65-1.35,3-3,3l0,0
			C63.68,264.01,62.34,262.66,62.34,261.01z M62.34,240c0-1.65,1.34-3,3-3l0,0c1.65,0,3,1.35,3,3l0,0c0,1.66-1.35,3-3,3l0,0
			C63.68,243,62.34,241.66,62.34,240z M62.34,219c0-1.66,1.34-3,3-3l0,0c1.65,0,3,1.34,3,3l0,0c0,1.66-1.35,3-3,3l0,0
			C63.68,222,62.34,220.66,62.34,219z M62.34,198c0-1.66,1.34-3,3-3l0,0c1.65,0,3,1.34,3,3l0,0c0,1.66-1.35,3-3,3l0,0
			C63.68,201,62.34,199.66,62.34,198z M62.34,177c0-1.66,1.34-3,3-3l0,0c1.65,0,3,1.34,3,3l0,0c0,1.65-1.35,3-3,3l0,0
			C63.68,180,62.34,178.65,62.34,177z M62.34,155.99c0-1.65,1.34-3,3-3l0,0c1.65,0,3,1.35,3,3l0,0c0,1.66-1.35,3-3,3l0,0
			C63.68,158.99,62.34,157.65,62.34,155.99z M62.34,134.99c0-1.65,1.34-3,3-3l0,0c1.65,0,3,1.35,3,3l0,0c0,1.66-1.35,3-3,3l0,0
			C63.68,137.99,62.34,136.65,62.34,134.99z M62.34,113.99c0-1.66,1.34-3,3-3l0,0c1.65,0,3,1.34,3,3l0,0c0,1.66-1.35,3-3,3l0,0
			C63.68,116.99,62.34,115.65,62.34,113.99z M62.34,92.99c0-1.66,1.34-3,3-3l0,0c1.65,0,3,1.34,3,3l0,0c0,1.65-1.35,3-3,3l0,0
			C63.68,95.99,62.34,94.64,62.34,92.99z M62.34,71.99c0-1.66,1.34-3,3-3l0,0c1.65,0,3,1.34,3,3l0,0c0,1.65-1.35,3-3,3l0,0
			C63.68,74.99,62.34,73.64,62.34,71.99z M62.34,50.98c0-1.65,1.34-3,3-3l0,0c1.65,0,3,1.35,3,3l0,0c0,1.66-1.35,3-3,3l0,0
			C63.68,53.98,62.34,52.64,62.34,50.98z M62.34,29.98c0-1.66,1.34-3,3-3l0,0c1.65,0,3,1.34,3,3l0,0c0,1.66-1.35,3-3,3l0,0
			C63.68,32.98,62.34,31.64,62.34,29.98z M62.34,8.98c0-1.66,1.34-3,3-3l0,0c1.65,0,3,1.34,3,3l0,0c0,1.65-1.35,3-3,3l0,0
			C63.68,11.98,62.34,10.63,62.34,8.98z"/>
		<path fill="#008CFF" d="M81.52,387.02c0-1.659,1.34-3,3-3l0,0c1.65,0,3,1.341,3,3l0,0c0,1.66-1.35,3-3,3l0,0
			C82.86,390.02,81.52,388.68,81.52,387.02z M81.52,366.02c0-1.659,1.34-3,3-3l0,0c1.65,0,3,1.341,3,3l0,0c0,1.65-1.35,3-3,3l0,0
			C82.86,369.02,81.52,367.67,81.52,366.02z M81.52,345.02c0-1.659,1.34-3,3-3l0,0c1.65,0,3,1.341,3,3l0,0c0,1.65-1.35,3-3,3l0,0
			C82.86,348.02,81.52,346.67,81.52,345.02z M81.52,324.01c0-1.649,1.34-3,3-3l0,0c1.65,0,3,1.351,3,3l0,0c0,1.66-1.35,3-3,3l0,0
			C82.86,327.01,81.52,325.67,81.52,324.01z M81.52,303.01c0-1.66,1.34-3,3-3l0,0c1.65,0,3,1.34,3,3l0,0c0,1.66-1.35,3-3,3l0,0
			C82.86,306.01,81.52,304.67,81.52,303.01z M81.52,282.01c0-1.66,1.34-3,3-3l0,0c1.65,0,3,1.34,3,3l0,0c0,1.65-1.35,3-3,3l0,0
			C82.86,285.01,81.52,283.66,81.52,282.01z M81.52,261.01c0-1.66,1.34-3,3-3l0,0c1.65,0,3,1.34,3,3l0,0c0,1.65-1.35,3-3,3l0,0
			C82.86,264.01,81.52,262.66,81.52,261.01z M81.52,240c0-1.65,1.34-3,3-3l0,0c1.65,0,3,1.35,3,3l0,0c0,1.66-1.35,3-3,3l0,0
			C82.86,243,81.52,241.66,81.52,240z M81.52,219c0-1.66,1.34-3,3-3l0,0c1.65,0,3,1.34,3,3l0,0c0,1.66-1.35,3-3,3l0,0
			C82.86,222,81.52,220.66,81.52,219z M81.52,198c0-1.66,1.34-3,3-3l0,0c1.65,0,3,1.34,3,3l0,0c0,1.66-1.35,3-3,3l0,0
			C82.86,201,81.52,199.66,81.52,198z M81.52,177c0-1.66,1.34-3,3-3l0,0c1.65,0,3,1.34,3,3l0,0c0,1.65-1.35,3-3,3l0,0
			C82.86,180,81.52,178.65,81.52,177z M81.52,155.99c0-1.65,1.34-3,3-3l0,0c1.65,0,3,1.35,3,3l0,0c0,1.66-1.35,3-3,3l0,0
			C82.86,158.99,81.52,157.65,81.52,155.99z M81.52,134.99c0-1.65,1.34-3,3-3l0,0c1.65,0,3,1.35,3,3l0,0c0,1.66-1.35,3-3,3l0,0
			C82.86,137.99,81.52,136.65,81.52,134.99z M81.52,113.99c0-1.66,1.34-3,3-3l0,0c1.65,0,3,1.34,3,3l0,0c0,1.66-1.35,3-3,3l0,0
			C82.86,116.99,81.52,115.65,81.52,113.99z M81.52,92.99c0-1.66,1.34-3,3-3l0,0c1.65,0,3,1.34,3,3l0,0c0,1.65-1.35,3-3,3l0,0
			C82.86,95.99,81.52,94.64,81.52,92.99z M81.52,71.99c0-1.66,1.34-3,3-3l0,0c1.65,0,3,1.34,3,3l0,0c0,1.65-1.35,3-3,3l0,0
			C82.86,74.99,81.52,73.64,81.52,71.99z M81.52,50.98c0-1.65,1.34-3,3-3l0,0c1.65,0,3,1.35,3,3l0,0c0,1.66-1.35,3-3,3l0,0
			C82.86,53.98,81.52,52.64,81.52,50.98z M81.52,29.98c0-1.66,1.34-3,3-3l0,0c1.65,0,3,1.34,3,3l0,0c0,1.66-1.35,3-3,3l0,0
			C82.86,32.98,81.52,31.64,81.52,29.98z M81.52,8.98c0-1.66,1.34-3,3-3l0,0c1.65,0,3,1.34,3,3l0,0c0,1.65-1.35,3-3,3l0,0
			C82.86,11.98,81.52,10.63,81.52,8.98z"/>
		<path fill="#008CFF" d="M102.3,387.02c0-1.659,1.34-3,3-3l0,0c1.65,0,3,1.341,3,3l0,0c0,1.66-1.35,3-3,3l0,0
			C103.64,390.02,102.3,388.68,102.3,387.02z M102.3,366.02c0-1.659,1.34-3,3-3l0,0c1.65,0,3,1.341,3,3l0,0c0,1.65-1.35,3-3,3l0,0
			C103.64,369.02,102.3,367.67,102.3,366.02z M102.3,345.02c0-1.659,1.34-3,3-3l0,0c1.65,0,3,1.341,3,3l0,0c0,1.65-1.35,3-3,3l0,0
			C103.64,348.02,102.3,346.67,102.3,345.02z M102.3,324.01c0-1.649,1.34-3,3-3l0,0c1.65,0,3,1.351,3,3l0,0c0,1.66-1.35,3-3,3l0,0
			C103.64,327.01,102.3,325.67,102.3,324.01z M102.3,303.01c0-1.66,1.34-3,3-3l0,0c1.65,0,3,1.34,3,3l0,0c0,1.66-1.35,3-3,3l0,0
			C103.64,306.01,102.3,304.67,102.3,303.01z M102.3,282.01c0-1.66,1.34-3,3-3l0,0c1.65,0,3,1.34,3,3l0,0c0,1.65-1.35,3-3,3l0,0
			C103.64,285.01,102.3,283.66,102.3,282.01z M102.3,261.01c0-1.66,1.34-3,3-3l0,0c1.65,0,3,1.34,3,3l0,0c0,1.65-1.35,3-3,3l0,0
			C103.64,264.01,102.3,262.66,102.3,261.01z M102.3,240c0-1.65,1.34-3,3-3l0,0c1.65,0,3,1.35,3,3l0,0c0,1.66-1.35,3-3,3l0,0
			C103.64,243,102.3,241.66,102.3,240z M102.3,219c0-1.66,1.34-3,3-3l0,0c1.65,0,3,1.34,3,3l0,0c0,1.66-1.35,3-3,3l0,0
			C103.64,222,102.3,220.66,102.3,219z M102.3,198c0-1.66,1.34-3,3-3l0,0c1.65,0,3,1.34,3,3l0,0c0,1.66-1.35,3-3,3l0,0
			C103.64,201,102.3,199.66,102.3,198z M102.3,177c0-1.66,1.34-3,3-3l0,0c1.65,0,3,1.34,3,3l0,0c0,1.65-1.35,3-3,3l0,0
			C103.64,180,102.3,178.65,102.3,177z M102.3,155.99c0-1.65,1.34-3,3-3l0,0c1.65,0,3,1.35,3,3l0,0c0,1.66-1.35,3-3,3l0,0
			C103.64,158.99,102.3,157.65,102.3,155.99z M102.3,134.99c0-1.65,1.34-3,3-3l0,0c1.65,0,3,1.35,3,3l0,0c0,1.66-1.35,3-3,3l0,0
			C103.64,137.99,102.3,136.65,102.3,134.99z M102.3,113.99c0-1.66,1.34-3,3-3l0,0c1.65,0,3,1.34,3,3l0,0c0,1.66-1.35,3-3,3l0,0
			C103.64,116.99,102.3,115.65,102.3,113.99z M102.3,92.99c0-1.66,1.34-3,3-3l0,0c1.65,0,3,1.34,3,3l0,0c0,1.65-1.35,3-3,3l0,0
			C103.64,95.99,102.3,94.64,102.3,92.99z M102.3,71.99c0-1.66,1.34-3,3-3l0,0c1.65,0,3,1.34,3,3l0,0c0,1.65-1.35,3-3,3l0,0
			C103.64,74.99,102.3,73.64,102.3,71.99z M102.3,50.98c0-1.65,1.34-3,3-3l0,0c1.65,0,3,1.35,3,3l0,0c0,1.66-1.35,3-3,3l0,0
			C103.64,53.98,102.3,52.64,102.3,50.98z M102.3,29.98c0-1.66,1.34-3,3-3l0,0c1.65,0,3,1.34,3,3l0,0c0,1.66-1.35,3-3,3l0,0
			C103.64,32.98,102.3,31.64,102.3,29.98z M102.3,8.98c0-1.66,1.34-3,3-3l0,0c1.65,0,3,1.34,3,3l0,0c0,1.65-1.35,3-3,3l0,0
			C103.64,11.98,102.3,10.63,102.3,8.98z"/>
		<path fill="#008CFF" d="M123.07,387.02c0-1.659,1.35-3,3-3l0,0c1.66,0,3,1.341,3,3l0,0c0,1.66-1.34,3-3,3l0,0
			C124.42,390.02,123.07,388.68,123.07,387.02z M123.07,366.02c0-1.659,1.35-3,3-3l0,0c1.66,0,3,1.341,3,3l0,0c0,1.65-1.34,3-3,3
			l0,0C124.42,369.02,123.07,367.67,123.07,366.02z M123.07,345.02c0-1.659,1.35-3,3-3l0,0c1.66,0,3,1.341,3,3l0,0
			c0,1.65-1.34,3-3,3l0,0C124.42,348.02,123.07,346.67,123.07,345.02z M123.07,324.01c0-1.649,1.35-3,3-3l0,0c1.66,0,3,1.351,3,3
			l0,0c0,1.66-1.34,3-3,3l0,0C124.42,327.01,123.07,325.67,123.07,324.01z M123.07,303.01c0-1.66,1.35-3,3-3l0,0c1.66,0,3,1.34,3,3
			l0,0c0,1.66-1.34,3-3,3l0,0C124.42,306.01,123.07,304.67,123.07,303.01z M123.07,282.01c0-1.66,1.35-3,3-3l0,0c1.66,0,3,1.34,3,3
			l0,0c0,1.65-1.34,3-3,3l0,0C124.42,285.01,123.07,283.66,123.07,282.01z M123.07,261.01c0-1.66,1.35-3,3-3l0,0c1.66,0,3,1.34,3,3
			l0,0c0,1.65-1.34,3-3,3l0,0C124.42,264.01,123.07,262.66,123.07,261.01z M123.07,240c0-1.65,1.35-3,3-3l0,0c1.66,0,3,1.35,3,3l0,0
			c0,1.66-1.34,3-3,3l0,0C124.42,243,123.07,241.66,123.07,240z M123.07,219c0-1.66,1.35-3,3-3l0,0c1.66,0,3,1.34,3,3l0,0
			c0,1.66-1.34,3-3,3l0,0C124.42,222,123.07,220.66,123.07,219z M123.07,198c0-1.66,1.35-3,3-3l0,0c1.66,0,3,1.34,3,3l0,0
			c0,1.66-1.34,3-3,3l0,0C124.42,201,123.07,199.66,123.07,198z M123.07,177c0-1.66,1.35-3,3-3l0,0c1.66,0,3,1.34,3,3l0,0
			c0,1.65-1.34,3-3,3l0,0C124.42,180,123.07,178.65,123.07,177z M123.07,155.99c0-1.65,1.35-3,3-3l0,0c1.66,0,3,1.35,3,3l0,0
			c0,1.66-1.34,3-3,3l0,0C124.42,158.99,123.07,157.65,123.07,155.99z M123.07,134.99c0-1.65,1.35-3,3-3l0,0c1.66,0,3,1.35,3,3l0,0
			c0,1.66-1.34,3-3,3l0,0C124.42,137.99,123.07,136.65,123.07,134.99z M123.07,113.99c0-1.66,1.35-3,3-3l0,0c1.66,0,3,1.34,3,3l0,0
			c0,1.66-1.34,3-3,3l0,0C124.42,116.99,123.07,115.65,123.07,113.99z M123.07,92.99c0-1.66,1.35-3,3-3l0,0c1.66,0,3,1.34,3,3l0,0
			c0,1.65-1.34,3-3,3l0,0C124.42,95.99,123.07,94.64,123.07,92.99z M123.07,71.99c0-1.66,1.35-3,3-3l0,0c1.66,0,3,1.34,3,3l0,0
			c0,1.65-1.34,3-3,3l0,0C124.42,74.99,123.07,73.64,123.07,71.99z M123.07,50.98c0-1.65,1.35-3,3-3l0,0c1.66,0,3,1.35,3,3l0,0
			c0,1.66-1.34,3-3,3l0,0C124.42,53.98,123.07,52.64,123.07,50.98z M123.07,29.98c0-1.66,1.35-3,3-3l0,0c1.66,0,3,1.34,3,3l0,0
			c0,1.66-1.34,3-3,3l0,0C124.42,32.98,123.07,31.64,123.07,29.98z M123.07,8.98c0-1.66,1.35-3,3-3l0,0c1.66,0,3,1.34,3,3l0,0
			c0,1.65-1.34,3-3,3l0,0C124.42,11.98,123.07,10.63,123.07,8.98z"/>
		<path fill="#008CFF" d="M143.85,387.02c0-1.659,1.35-3,3-3l0,0c1.66,0,3,1.341,3,3l0,0c0,1.66-1.34,3-3,3l0,0
			C145.2,390.02,143.85,388.68,143.85,387.02z M143.85,366.02c0-1.659,1.35-3,3-3l0,0c1.66,0,3,1.341,3,3l0,0c0,1.65-1.34,3-3,3l0,0
			C145.2,369.02,143.85,367.67,143.85,366.02z M143.85,345.02c0-1.659,1.35-3,3-3l0,0c1.66,0,3,1.341,3,3l0,0c0,1.65-1.34,3-3,3l0,0
			C145.2,348.02,143.85,346.67,143.85,345.02z M143.85,324.01c0-1.649,1.35-3,3-3l0,0c1.66,0,3,1.351,3,3l0,0c0,1.66-1.34,3-3,3l0,0
			C145.2,327.01,143.85,325.67,143.85,324.01z M143.85,303.01c0-1.66,1.35-3,3-3l0,0c1.66,0,3,1.34,3,3l0,0c0,1.66-1.34,3-3,3l0,0
			C145.2,306.01,143.85,304.67,143.85,303.01z M143.85,282.01c0-1.66,1.35-3,3-3l0,0c1.66,0,3,1.34,3,3l0,0c0,1.65-1.34,3-3,3l0,0
			C145.2,285.01,143.85,283.66,143.85,282.01z M143.85,261.01c0-1.66,1.35-3,3-3l0,0c1.66,0,3,1.34,3,3l0,0c0,1.65-1.34,3-3,3l0,0
			C145.2,264.01,143.85,262.66,143.85,261.01z M143.85,240c0-1.65,1.35-3,3-3l0,0c1.66,0,3,1.35,3,3l0,0c0,1.66-1.34,3-3,3l0,0
			C145.2,243,143.85,241.66,143.85,240z M143.85,219c0-1.66,1.35-3,3-3l0,0c1.66,0,3,1.34,3,3l0,0c0,1.66-1.34,3-3,3l0,0
			C145.2,222,143.85,220.66,143.85,219z M143.85,198c0-1.66,1.35-3,3-3l0,0c1.66,0,3,1.34,3,3l0,0c0,1.66-1.34,3-3,3l0,0
			C145.2,201,143.85,199.66,143.85,198z M143.85,177c0-1.66,1.35-3,3-3l0,0c1.66,0,3,1.34,3,3l0,0c0,1.65-1.34,3-3,3l0,0
			C145.2,180,143.85,178.65,143.85,177z M143.85,155.99c0-1.65,1.35-3,3-3l0,0c1.66,0,3,1.35,3,3l0,0c0,1.66-1.34,3-3,3l0,0
			C145.2,158.99,143.85,157.65,143.85,155.99z M143.85,134.99c0-1.65,1.35-3,3-3l0,0c1.66,0,3,1.35,3,3l0,0c0,1.66-1.34,3-3,3l0,0
			C145.2,137.99,143.85,136.65,143.85,134.99z M143.85,113.99c0-1.66,1.35-3,3-3l0,0c1.66,0,3,1.34,3,3l0,0c0,1.66-1.34,3-3,3l0,0
			C145.2,116.99,143.85,115.65,143.85,113.99z M143.85,92.99c0-1.66,1.35-3,3-3l0,0c1.66,0,3,1.34,3,3l0,0c0,1.65-1.34,3-3,3l0,0
			C145.2,95.99,143.85,94.64,143.85,92.99z M143.85,71.99c0-1.66,1.35-3,3-3l0,0c1.66,0,3,1.34,3,3l0,0c0,1.65-1.34,3-3,3l0,0
			C145.2,74.99,143.85,73.64,143.85,71.99z M143.85,50.98c0-1.65,1.35-3,3-3l0,0c1.66,0,3,1.35,3,3l0,0c0,1.66-1.34,3-3,3l0,0
			C145.2,53.98,143.85,52.64,143.85,50.98z M143.85,29.98c0-1.66,1.35-3,3-3l0,0c1.66,0,3,1.34,3,3l0,0c0,1.66-1.34,3-3,3l0,0
			C145.2,32.98,143.85,31.64,143.85,29.98z M143.85,8.98c0-1.66,1.35-3,3-3l0,0c1.66,0,3,1.34,3,3l0,0c0,1.65-1.34,3-3,3l0,0
			C145.2,11.98,143.85,10.63,143.85,8.98z"/>
		<path fill="#008CFF" d="M164.63,387.02c0-1.659,1.35-3,3-3l0,0c1.66,0,3,1.341,3,3l0,0c0,1.66-1.34,3-3,3l0,0
			C165.98,390.02,164.63,388.68,164.63,387.02z M164.63,366.02c0-1.659,1.35-3,3-3l0,0c1.66,0,3,1.341,3,3l0,0c0,1.65-1.34,3-3,3
			l0,0C165.98,369.02,164.63,367.67,164.63,366.02z M164.63,345.02c0-1.659,1.35-3,3-3l0,0c1.66,0,3,1.341,3,3l0,0
			c0,1.65-1.34,3-3,3l0,0C165.98,348.02,164.63,346.67,164.63,345.02z M164.63,324.01c0-1.649,1.35-3,3-3l0,0c1.66,0,3,1.351,3,3
			l0,0c0,1.66-1.34,3-3,3l0,0C165.98,327.01,164.63,325.67,164.63,324.01z M164.63,303.01c0-1.66,1.35-3,3-3l0,0c1.66,0,3,1.34,3,3
			l0,0c0,1.66-1.34,3-3,3l0,0C165.98,306.01,164.63,304.67,164.63,303.01z M164.63,282.01c0-1.66,1.35-3,3-3l0,0c1.66,0,3,1.34,3,3
			l0,0c0,1.65-1.34,3-3,3l0,0C165.98,285.01,164.63,283.66,164.63,282.01z M164.63,261.01c0-1.66,1.35-3,3-3l0,0c1.66,0,3,1.34,3,3
			l0,0c0,1.65-1.34,3-3,3l0,0C165.98,264.01,164.63,262.66,164.63,261.01z M164.63,240c0-1.65,1.35-3,3-3l0,0c1.66,0,3,1.35,3,3l0,0
			c0,1.66-1.34,3-3,3l0,0C165.98,243,164.63,241.66,164.63,240z M164.63,219c0-1.66,1.35-3,3-3l0,0c1.66,0,3,1.34,3,3l0,0
			c0,1.66-1.34,3-3,3l0,0C165.98,222,164.63,220.66,164.63,219z M164.63,198c0-1.66,1.35-3,3-3l0,0c1.66,0,3,1.34,3,3l0,0
			c0,1.66-1.34,3-3,3l0,0C165.98,201,164.63,199.66,164.63,198z M164.63,177c0-1.66,1.35-3,3-3l0,0c1.66,0,3,1.34,3,3l0,0
			c0,1.65-1.34,3-3,3l0,0C165.98,180,164.63,178.65,164.63,177z M164.63,155.99c0-1.65,1.35-3,3-3l0,0c1.66,0,3,1.35,3,3l0,0
			c0,1.66-1.34,3-3,3l0,0C165.98,158.99,164.63,157.65,164.63,155.99z M164.63,134.99c0-1.65,1.35-3,3-3l0,0c1.66,0,3,1.35,3,3l0,0
			c0,1.66-1.34,3-3,3l0,0C165.98,137.99,164.63,136.65,164.63,134.99z M164.63,113.99c0-1.66,1.35-3,3-3l0,0c1.66,0,3,1.34,3,3l0,0
			c0,1.66-1.34,3-3,3l0,0C165.98,116.99,164.63,115.65,164.63,113.99z M164.63,92.99c0-1.66,1.35-3,3-3l0,0c1.66,0,3,1.34,3,3l0,0
			c0,1.65-1.34,3-3,3l0,0C165.98,95.99,164.63,94.64,164.63,92.99z M164.63,71.99c0-1.66,1.35-3,3-3l0,0c1.66,0,3,1.34,3,3l0,0
			c0,1.65-1.34,3-3,3l0,0C165.98,74.99,164.63,73.64,164.63,71.99z M164.63,50.98c0-1.65,1.35-3,3-3l0,0c1.66,0,3,1.35,3,3l0,0
			c0,1.66-1.34,3-3,3l0,0C165.98,53.98,164.63,52.64,164.63,50.98z M164.63,29.98c0-1.66,1.35-3,3-3l0,0c1.66,0,3,1.34,3,3l0,0
			c0,1.66-1.34,3-3,3l0,0C165.98,32.98,164.63,31.64,164.63,29.98z M164.63,8.98c0-1.66,1.35-3,3-3l0,0c1.66,0,3,1.34,3,3l0,0
			c0,1.65-1.34,3-3,3l0,0C165.98,11.98,164.63,10.63,164.63,8.98z"/>
		<path fill="#008CFF" d="M185.41,387.02c0-1.659,1.34-3,3-3l0,0c1.66,0,3,1.341,3,3l0,0c0,1.66-1.34,3-3,3l0,0
			C186.75,390.02,185.41,388.68,185.41,387.02z M185.41,366.02c0-1.659,1.34-3,3-3l0,0c1.66,0,3,1.341,3,3l0,0c0,1.65-1.34,3-3,3
			l0,0C186.75,369.02,185.41,367.67,185.41,366.02z M185.41,345.02c0-1.659,1.34-3,3-3l0,0c1.66,0,3,1.341,3,3l0,0
			c0,1.65-1.34,3-3,3l0,0C186.75,348.02,185.41,346.67,185.41,345.02z M185.41,324.01c0-1.649,1.34-3,3-3l0,0c1.66,0,3,1.351,3,3
			l0,0c0,1.66-1.34,3-3,3l0,0C186.75,327.01,185.41,325.67,185.41,324.01z M185.41,303.01c0-1.66,1.34-3,3-3l0,0c1.66,0,3,1.34,3,3
			l0,0c0,1.66-1.34,3-3,3l0,0C186.75,306.01,185.41,304.67,185.41,303.01z M185.41,282.01c0-1.66,1.34-3,3-3l0,0c1.66,0,3,1.34,3,3
			l0,0c0,1.65-1.34,3-3,3l0,0C186.75,285.01,185.41,283.66,185.41,282.01z M185.41,261.01c0-1.66,1.34-3,3-3l0,0c1.66,0,3,1.34,3,3
			l0,0c0,1.65-1.34,3-3,3l0,0C186.75,264.01,185.41,262.66,185.41,261.01z M185.41,240c0-1.65,1.34-3,3-3l0,0c1.66,0,3,1.35,3,3l0,0
			c0,1.66-1.34,3-3,3l0,0C186.75,243,185.41,241.66,185.41,240z M185.41,219c0-1.66,1.34-3,3-3l0,0c1.66,0,3,1.34,3,3l0,0
			c0,1.66-1.34,3-3,3l0,0C186.75,222,185.41,220.66,185.41,219z M185.41,198c0-1.66,1.34-3,3-3l0,0c1.66,0,3,1.34,3,3l0,0
			c0,1.66-1.34,3-3,3l0,0C186.75,201,185.41,199.66,185.41,198z M185.41,177c0-1.66,1.34-3,3-3l0,0c1.66,0,3,1.34,3,3l0,0
			c0,1.65-1.34,3-3,3l0,0C186.75,180,185.41,178.65,185.41,177z M185.41,155.99c0-1.65,1.34-3,3-3l0,0c1.66,0,3,1.35,3,3l0,0
			c0,1.66-1.34,3-3,3l0,0C186.75,158.99,185.41,157.65,185.41,155.99z M185.41,134.99c0-1.65,1.34-3,3-3l0,0c1.66,0,3,1.35,3,3l0,0
			c0,1.66-1.34,3-3,3l0,0C186.75,137.99,185.41,136.65,185.41,134.99z M185.41,113.99c0-1.66,1.34-3,3-3l0,0c1.66,0,3,1.34,3,3l0,0
			c0,1.66-1.34,3-3,3l0,0C186.75,116.99,185.41,115.65,185.41,113.99z M185.41,92.99c0-1.66,1.34-3,3-3l0,0c1.66,0,3,1.34,3,3l0,0
			c0,1.65-1.34,3-3,3l0,0C186.75,95.99,185.41,94.64,185.41,92.99z M185.41,71.99c0-1.66,1.34-3,3-3l0,0c1.66,0,3,1.34,3,3l0,0
			c0,1.65-1.34,3-3,3l0,0C186.75,74.99,185.41,73.64,185.41,71.99z M185.41,50.98c0-1.65,1.34-3,3-3l0,0c1.66,0,3,1.35,3,3l0,0
			c0,1.66-1.34,3-3,3l0,0C186.75,53.98,185.41,52.64,185.41,50.98z M185.41,29.98c0-1.66,1.34-3,3-3l0,0c1.66,0,3,1.34,3,3l0,0
			c0,1.66-1.34,3-3,3l0,0C186.75,32.98,185.41,31.64,185.41,29.98z M185.41,8.98c0-1.66,1.34-3,3-3l0,0c1.66,0,3,1.34,3,3l0,0
			c0,1.65-1.34,3-3,3l0,0C186.75,11.98,185.41,10.63,185.41,8.98z"/>
		<path fill="#008CFF" d="M204.59,387.02c0-1.659,1.34-3,3-3l0,0c1.66,0,3,1.341,3,3l0,0c0,1.66-1.34,3-3,3l0,0
			C205.93,390.02,204.59,388.68,204.59,387.02z M204.59,366.02c0-1.659,1.34-3,3-3l0,0c1.66,0,3,1.341,3,3l0,0c0,1.65-1.34,3-3,3
			l0,0C205.93,369.02,204.59,367.67,204.59,366.02z M204.59,345.02c0-1.659,1.34-3,3-3l0,0c1.66,0,3,1.341,3,3l0,0
			c0,1.65-1.34,3-3,3l0,0C205.93,348.02,204.59,346.67,204.59,345.02z M204.59,324.01c0-1.649,1.34-3,3-3l0,0c1.66,0,3,1.351,3,3
			l0,0c0,1.66-1.34,3-3,3l0,0C205.93,327.01,204.59,325.67,204.59,324.01z M204.59,303.01c0-1.66,1.34-3,3-3l0,0c1.66,0,3,1.34,3,3
			l0,0c0,1.66-1.34,3-3,3l0,0C205.93,306.01,204.59,304.67,204.59,303.01z M204.59,282.01c0-1.66,1.34-3,3-3l0,0c1.66,0,3,1.34,3,3
			l0,0c0,1.65-1.34,3-3,3l0,0C205.93,285.01,204.59,283.66,204.59,282.01z M204.59,261.01c0-1.66,1.34-3,3-3l0,0c1.66,0,3,1.34,3,3
			l0,0c0,1.65-1.34,3-3,3l0,0C205.93,264.01,204.59,262.66,204.59,261.01z M204.59,240c0-1.65,1.34-3,3-3l0,0c1.66,0,3,1.35,3,3l0,0
			c0,1.66-1.34,3-3,3l0,0C205.93,243,204.59,241.66,204.59,240z M204.59,219c0-1.66,1.34-3,3-3l0,0c1.66,0,3,1.34,3,3l0,0
			c0,1.66-1.34,3-3,3l0,0C205.93,222,204.59,220.66,204.59,219z M204.59,198c0-1.66,1.34-3,3-3l0,0c1.66,0,3,1.34,3,3l0,0
			c0,1.66-1.34,3-3,3l0,0C205.93,201,204.59,199.66,204.59,198z M204.59,177c0-1.66,1.34-3,3-3l0,0c1.66,0,3,1.34,3,3l0,0
			c0,1.65-1.34,3-3,3l0,0C205.93,180,204.59,178.65,204.59,177z M204.59,155.99c0-1.65,1.34-3,3-3l0,0c1.66,0,3,1.35,3,3l0,0
			c0,1.66-1.34,3-3,3l0,0C205.93,158.99,204.59,157.65,204.59,155.99z M204.59,134.99c0-1.65,1.34-3,3-3l0,0c1.66,0,3,1.35,3,3l0,0
			c0,1.66-1.34,3-3,3l0,0C205.93,137.99,204.59,136.65,204.59,134.99z M204.59,113.99c0-1.66,1.34-3,3-3l0,0c1.66,0,3,1.34,3,3l0,0
			c0,1.66-1.34,3-3,3l0,0C205.93,116.99,204.59,115.65,204.59,113.99z M204.59,92.99c0-1.66,1.34-3,3-3l0,0c1.66,0,3,1.34,3,3l0,0
			c0,1.65-1.34,3-3,3l0,0C205.93,95.99,204.59,94.64,204.59,92.99z M204.59,71.99c0-1.66,1.34-3,3-3l0,0c1.66,0,3,1.34,3,3l0,0
			c0,1.65-1.34,3-3,3l0,0C205.93,74.99,204.59,73.64,204.59,71.99z M204.59,50.98c0-1.65,1.34-3,3-3l0,0c1.66,0,3,1.35,3,3l0,0
			c0,1.66-1.34,3-3,3l0,0C205.93,53.98,204.59,52.64,204.59,50.98z M204.59,29.98c0-1.66,1.34-3,3-3l0,0c1.66,0,3,1.34,3,3l0,0
			c0,1.66-1.34,3-3,3l0,0C205.93,32.98,204.59,31.64,204.59,29.98z M204.59,8.98c0-1.66,1.34-3,3-3l0,0c1.66,0,3,1.34,3,3l0,0
			c0,1.65-1.34,3-3,3l0,0C205.93,11.98,204.59,10.63,204.59,8.98z"/>
		<path fill="#008CFF" d="M225.37,387.02c0-1.659,1.34-3,3-3l0,0c1.649,0,3,1.341,3,3l0,0c0,1.66-1.351,3-3,3l0,0
			C226.71,390.02,225.37,388.68,225.37,387.02z M225.37,366.02c0-1.659,1.34-3,3-3l0,0c1.649,0,3,1.341,3,3l0,0c0,1.65-1.351,3-3,3
			l0,0C226.71,369.02,225.37,367.67,225.37,366.02z M225.37,345.02c0-1.659,1.34-3,3-3l0,0c1.649,0,3,1.341,3,3l0,0
			c0,1.65-1.351,3-3,3l0,0C226.71,348.02,225.37,346.67,225.37,345.02z M225.37,324.01c0-1.649,1.34-3,3-3l0,0c1.649,0,3,1.351,3,3
			l0,0c0,1.66-1.351,3-3,3l0,0C226.71,327.01,225.37,325.67,225.37,324.01z M225.37,303.01c0-1.66,1.34-3,3-3l0,0
			c1.649,0,3,1.34,3,3l0,0c0,1.66-1.351,3-3,3l0,0C226.71,306.01,225.37,304.67,225.37,303.01z M225.37,282.01c0-1.66,1.34-3,3-3
			l0,0c1.649,0,3,1.34,3,3l0,0c0,1.65-1.351,3-3,3l0,0C226.71,285.01,225.37,283.66,225.37,282.01z M225.37,261.01
			c0-1.66,1.34-3,3-3l0,0c1.649,0,3,1.34,3,3l0,0c0,1.65-1.351,3-3,3l0,0C226.71,264.01,225.37,262.66,225.37,261.01z M225.37,240
			c0-1.65,1.34-3,3-3l0,0c1.649,0,3,1.35,3,3l0,0c0,1.66-1.351,3-3,3l0,0C226.71,243,225.37,241.66,225.37,240z M225.37,219
			c0-1.66,1.34-3,3-3l0,0c1.649,0,3,1.34,3,3l0,0c0,1.66-1.351,3-3,3l0,0C226.71,222,225.37,220.66,225.37,219z M225.37,198
			c0-1.66,1.34-3,3-3l0,0c1.649,0,3,1.34,3,3l0,0c0,1.66-1.351,3-3,3l0,0C226.71,201,225.37,199.66,225.37,198z M225.37,177
			c0-1.66,1.34-3,3-3l0,0c1.649,0,3,1.34,3,3l0,0c0,1.65-1.351,3-3,3l0,0C226.71,180,225.37,178.65,225.37,177z M225.37,155.99
			c0-1.65,1.34-3,3-3l0,0c1.649,0,3,1.35,3,3l0,0c0,1.66-1.351,3-3,3l0,0C226.71,158.99,225.37,157.65,225.37,155.99z
			 M225.37,134.99c0-1.65,1.34-3,3-3l0,0c1.649,0,3,1.35,3,3l0,0c0,1.66-1.351,3-3,3l0,0C226.71,137.99,225.37,136.65,225.37,134.99
			z M225.37,113.99c0-1.66,1.34-3,3-3l0,0c1.649,0,3,1.34,3,3l0,0c0,1.66-1.351,3-3,3l0,0
			C226.71,116.99,225.37,115.65,225.37,113.99z M225.37,92.99c0-1.66,1.34-3,3-3l0,0c1.649,0,3,1.34,3,3l0,0c0,1.65-1.351,3-3,3l0,0
			C226.71,95.99,225.37,94.64,225.37,92.99z M225.37,71.99c0-1.66,1.34-3,3-3l0,0c1.649,0,3,1.34,3,3l0,0c0,1.65-1.351,3-3,3l0,0
			C226.71,74.99,225.37,73.64,225.37,71.99z M225.37,50.98c0-1.65,1.34-3,3-3l0,0c1.649,0,3,1.35,3,3l0,0c0,1.66-1.351,3-3,3l0,0
			C226.71,53.98,225.37,52.64,225.37,50.98z M225.37,29.98c0-1.66,1.34-3,3-3l0,0c1.649,0,3,1.34,3,3l0,0c0,1.66-1.351,3-3,3l0,0
			C226.71,32.98,225.37,31.64,225.37,29.98z M225.37,8.98c0-1.66,1.34-3,3-3l0,0c1.649,0,3,1.34,3,3l0,0c0,1.65-1.351,3-3,3l0,0
			C226.71,11.98,225.37,10.63,225.37,8.98z"/>
		<path fill="#008CFF" d="M246.148,387.02c0-1.659,1.342-3,3-3l0,0c1.65,0,3,1.341,3,3l0,0c0,1.66-1.35,3-3,3l0,0
			C247.49,390.02,246.148,388.68,246.148,387.02z M246.148,366.02c0-1.659,1.342-3,3-3l0,0c1.65,0,3,1.341,3,3l0,0
			c0,1.65-1.35,3-3,3l0,0C247.49,369.02,246.148,367.67,246.148,366.02z M246.148,345.02c0-1.659,1.342-3,3-3l0,0
			c1.65,0,3,1.341,3,3l0,0c0,1.65-1.35,3-3,3l0,0C247.49,348.02,246.148,346.67,246.148,345.02z M246.148,324.01
			c0-1.649,1.342-3,3-3l0,0c1.65,0,3,1.351,3,3l0,0c0,1.66-1.35,3-3,3l0,0C247.49,327.01,246.148,325.67,246.148,324.01z
			 M246.148,303.01c0-1.66,1.342-3,3-3l0,0c1.65,0,3,1.34,3,3l0,0c0,1.66-1.35,3-3,3l0,0
			C247.49,306.01,246.148,304.67,246.148,303.01z M246.148,282.01c0-1.66,1.342-3,3-3l0,0c1.65,0,3,1.34,3,3l0,0c0,1.65-1.35,3-3,3
			l0,0C247.49,285.01,246.148,283.66,246.148,282.01z M246.148,261.01c0-1.66,1.342-3,3-3l0,0c1.65,0,3,1.34,3,3l0,0
			c0,1.65-1.35,3-3,3l0,0C247.49,264.01,246.148,262.66,246.148,261.01z M246.148,240c0-1.65,1.342-3,3-3l0,0c1.65,0,3,1.35,3,3l0,0
			c0,1.66-1.35,3-3,3l0,0C247.49,243,246.148,241.66,246.148,240z M246.148,219c0-1.66,1.342-3,3-3l0,0c1.65,0,3,1.34,3,3l0,0
			c0,1.66-1.35,3-3,3l0,0C247.49,222,246.148,220.66,246.148,219z M246.148,198c0-1.66,1.342-3,3-3l0,0c1.65,0,3,1.34,3,3l0,0
			c0,1.66-1.35,3-3,3l0,0C247.49,201,246.148,199.66,246.148,198z M246.148,177c0-1.66,1.342-3,3-3l0,0c1.65,0,3,1.34,3,3l0,0
			c0,1.65-1.35,3-3,3l0,0C247.49,180,246.148,178.65,246.148,177z M246.148,155.99c0-1.65,1.342-3,3-3l0,0c1.65,0,3,1.35,3,3l0,0
			c0,1.66-1.35,3-3,3l0,0C247.49,158.99,246.148,157.65,246.148,155.99z M246.148,134.99c0-1.65,1.342-3,3-3l0,0c1.65,0,3,1.35,3,3
			l0,0c0,1.66-1.35,3-3,3l0,0C247.49,137.99,246.148,136.65,246.148,134.99z M246.148,113.99c0-1.66,1.342-3,3-3l0,0
			c1.65,0,3,1.34,3,3l0,0c0,1.66-1.35,3-3,3l0,0C247.49,116.99,246.148,115.65,246.148,113.99z M246.148,92.99c0-1.66,1.342-3,3-3
			l0,0c1.65,0,3,1.34,3,3l0,0c0,1.65-1.35,3-3,3l0,0C247.49,95.99,246.148,94.64,246.148,92.99z M246.148,71.99c0-1.66,1.342-3,3-3
			l0,0c1.65,0,3,1.34,3,3l0,0c0,1.65-1.35,3-3,3l0,0C247.49,74.99,246.148,73.64,246.148,71.99z M246.148,50.98c0-1.65,1.342-3,3-3
			l0,0c1.65,0,3,1.35,3,3l0,0c0,1.66-1.35,3-3,3l0,0C247.49,53.98,246.148,52.64,246.148,50.98z M246.148,29.98c0-1.66,1.342-3,3-3
			l0,0c1.65,0,3,1.34,3,3l0,0c0,1.66-1.35,3-3,3l0,0C247.49,32.98,246.148,31.64,246.148,29.98z M246.148,8.98c0-1.66,1.342-3,3-3
			l0,0c1.65,0,3,1.34,3,3l0,0c0,1.65-1.35,3-3,3l0,0C247.49,11.98,246.148,10.63,246.148,8.98z"/>
		<path fill="#008CFF" d="M266.93,387.02c0-1.659,1.34-3,3-3l0,0c1.65,0,3,1.341,3,3l0,0c0,1.66-1.35,3-3,3l0,0
			C268.27,390.02,266.93,388.68,266.93,387.02z M266.93,366.02c0-1.659,1.34-3,3-3l0,0c1.65,0,3,1.341,3,3l0,0c0,1.65-1.35,3-3,3
			l0,0C268.27,369.02,266.93,367.67,266.93,366.02z M266.93,345.02c0-1.659,1.34-3,3-3l0,0c1.65,0,3,1.341,3,3l0,0
			c0,1.65-1.35,3-3,3l0,0C268.27,348.02,266.93,346.67,266.93,345.02z M266.93,324.01c0-1.649,1.34-3,3-3l0,0c1.65,0,3,1.351,3,3
			l0,0c0,1.66-1.35,3-3,3l0,0C268.27,327.01,266.93,325.67,266.93,324.01z M266.93,303.01c0-1.66,1.34-3,3-3l0,0c1.65,0,3,1.34,3,3
			l0,0c0,1.66-1.35,3-3,3l0,0C268.27,306.01,266.93,304.67,266.93,303.01z M266.93,282.01c0-1.66,1.34-3,3-3l0,0c1.65,0,3,1.34,3,3
			l0,0c0,1.65-1.35,3-3,3l0,0C268.27,285.01,266.93,283.66,266.93,282.01z M266.93,261.01c0-1.66,1.34-3,3-3l0,0c1.65,0,3,1.34,3,3
			l0,0c0,1.65-1.35,3-3,3l0,0C268.27,264.01,266.93,262.66,266.93,261.01z M266.93,240c0-1.65,1.34-3,3-3l0,0c1.65,0,3,1.35,3,3l0,0
			c0,1.66-1.35,3-3,3l0,0C268.27,243,266.93,241.66,266.93,240z M266.93,219c0-1.66,1.34-3,3-3l0,0c1.65,0,3,1.34,3,3l0,0
			c0,1.66-1.35,3-3,3l0,0C268.27,222,266.93,220.66,266.93,219z M266.93,198c0-1.66,1.34-3,3-3l0,0c1.65,0,3,1.34,3,3l0,0
			c0,1.66-1.35,3-3,3l0,0C268.27,201,266.93,199.66,266.93,198z M266.93,177c0-1.66,1.34-3,3-3l0,0c1.65,0,3,1.34,3,3l0,0
			c0,1.65-1.35,3-3,3l0,0C268.27,180,266.93,178.65,266.93,177z M266.93,155.99c0-1.65,1.34-3,3-3l0,0c1.65,0,3,1.35,3,3l0,0
			c0,1.66-1.35,3-3,3l0,0C268.27,158.99,266.93,157.65,266.93,155.99z M266.93,134.99c0-1.65,1.34-3,3-3l0,0c1.65,0,3,1.35,3,3l0,0
			c0,1.66-1.35,3-3,3l0,0C268.27,137.99,266.93,136.65,266.93,134.99z M266.93,113.99c0-1.66,1.34-3,3-3l0,0c1.65,0,3,1.34,3,3l0,0
			c0,1.66-1.35,3-3,3l0,0C268.27,116.99,266.93,115.65,266.93,113.99z M266.93,92.99c0-1.66,1.34-3,3-3l0,0c1.65,0,3,1.34,3,3l0,0
			c0,1.65-1.35,3-3,3l0,0C268.27,95.99,266.93,94.64,266.93,92.99z M266.93,71.99c0-1.66,1.34-3,3-3l0,0c1.65,0,3,1.34,3,3l0,0
			c0,1.65-1.35,3-3,3l0,0C268.27,74.99,266.93,73.64,266.93,71.99z M266.93,50.98c0-1.65,1.34-3,3-3l0,0c1.65,0,3,1.35,3,3l0,0
			c0,1.66-1.35,3-3,3l0,0C268.27,53.98,266.93,52.64,266.93,50.98z M266.93,29.98c0-1.66,1.34-3,3-3l0,0c1.65,0,3,1.34,3,3l0,0
			c0,1.66-1.35,3-3,3l0,0C268.27,32.98,266.93,31.64,266.93,29.98z M266.93,8.98c0-1.66,1.34-3,3-3l0,0c1.65,0,3,1.34,3,3l0,0
			c0,1.65-1.35,3-3,3l0,0C268.27,11.98,266.93,10.63,266.93,8.98z"/>
		<path fill="#008CFF" d="M287.71,387.02c0-1.659,1.34-3,3-3l0,0c1.649,0,3,1.341,3,3l0,0c0,1.66-1.351,3-3,3l0,0
			C289.05,390.02,287.71,388.68,287.71,387.02z M287.71,366.02c0-1.659,1.34-3,3-3l0,0c1.649,0,3,1.341,3,3l0,0c0,1.65-1.351,3-3,3
			l0,0C289.05,369.02,287.71,367.67,287.71,366.02z M287.71,345.02c0-1.659,1.34-3,3-3l0,0c1.649,0,3,1.341,3,3l0,0
			c0,1.65-1.351,3-3,3l0,0C289.05,348.02,287.71,346.67,287.71,345.02z M287.71,324.01c0-1.649,1.34-3,3-3l0,0c1.649,0,3,1.351,3,3
			l0,0c0,1.66-1.351,3-3,3l0,0C289.05,327.01,287.71,325.67,287.71,324.01z M287.71,303.01c0-1.66,1.34-3,3-3l0,0
			c1.649,0,3,1.34,3,3l0,0c0,1.66-1.351,3-3,3l0,0C289.05,306.01,287.71,304.67,287.71,303.01z M287.71,282.01c0-1.66,1.34-3,3-3
			l0,0c1.649,0,3,1.34,3,3l0,0c0,1.65-1.351,3-3,3l0,0C289.05,285.01,287.71,283.66,287.71,282.01z M287.71,261.01
			c0-1.66,1.34-3,3-3l0,0c1.649,0,3,1.34,3,3l0,0c0,1.65-1.351,3-3,3l0,0C289.05,264.01,287.71,262.66,287.71,261.01z M287.71,240
			c0-1.65,1.34-3,3-3l0,0c1.649,0,3,1.35,3,3l0,0c0,1.66-1.351,3-3,3l0,0C289.05,243,287.71,241.66,287.71,240z M287.71,219
			c0-1.66,1.34-3,3-3l0,0c1.649,0,3,1.34,3,3l0,0c0,1.66-1.351,3-3,3l0,0C289.05,222,287.71,220.66,287.71,219z M287.71,198
			c0-1.66,1.34-3,3-3l0,0c1.649,0,3,1.34,3,3l0,0c0,1.66-1.351,3-3,3l0,0C289.05,201,287.71,199.66,287.71,198z M287.71,177
			c0-1.66,1.34-3,3-3l0,0c1.649,0,3,1.34,3,3l0,0c0,1.65-1.351,3-3,3l0,0C289.05,180,287.71,178.65,287.71,177z M287.71,155.99
			c0-1.65,1.34-3,3-3l0,0c1.649,0,3,1.35,3,3l0,0c0,1.66-1.351,3-3,3l0,0C289.05,158.99,287.71,157.65,287.71,155.99z
			 M287.71,134.99c0-1.65,1.34-3,3-3l0,0c1.649,0,3,1.35,3,3l0,0c0,1.66-1.351,3-3,3l0,0C289.05,137.99,287.71,136.65,287.71,134.99
			z M287.71,113.99c0-1.66,1.34-3,3-3l0,0c1.649,0,3,1.34,3,3l0,0c0,1.66-1.351,3-3,3l0,0
			C289.05,116.99,287.71,115.65,287.71,113.99z M287.71,92.99c0-1.66,1.34-3,3-3l0,0c1.649,0,3,1.34,3,3l0,0c0,1.65-1.351,3-3,3l0,0
			C289.05,95.99,287.71,94.64,287.71,92.99z M287.71,71.99c0-1.66,1.34-3,3-3l0,0c1.649,0,3,1.34,3,3l0,0c0,1.65-1.351,3-3,3l0,0
			C289.05,74.99,287.71,73.64,287.71,71.99z M287.71,50.98c0-1.65,1.34-3,3-3l0,0c1.649,0,3,1.35,3,3l0,0c0,1.66-1.351,3-3,3l0,0
			C289.05,53.98,287.71,52.64,287.71,50.98z M287.71,29.98c0-1.66,1.34-3,3-3l0,0c1.649,0,3,1.34,3,3l0,0c0,1.66-1.351,3-3,3l0,0
			C289.05,32.98,287.71,31.64,287.71,29.98z M287.71,8.98c0-1.66,1.34-3,3-3l0,0c1.649,0,3,1.34,3,3l0,0c0,1.65-1.351,3-3,3l0,0
			C289.05,11.98,287.71,10.63,287.71,8.98z"/>
		<path fill="#008CFF" d="M308.479,387.02c0-1.659,1.34-3,3-3l0,0c1.66,0,3,1.341,3,3l0,0c0,1.66-1.34,3-3,3l0,0
			C309.818,390.02,308.479,388.68,308.479,387.02z M308.479,366.02c0-1.659,1.34-3,3-3l0,0c1.66,0,3,1.341,3,3l0,0
			c0,1.65-1.34,3-3,3l0,0C309.818,369.02,308.479,367.67,308.479,366.02z M308.479,345.02c0-1.659,1.34-3,3-3l0,0
			c1.66,0,3,1.341,3,3l0,0c0,1.65-1.34,3-3,3l0,0C309.818,348.02,308.479,346.67,308.479,345.02z M308.479,324.01
			c0-1.649,1.34-3,3-3l0,0c1.66,0,3,1.351,3,3l0,0c0,1.66-1.34,3-3,3l0,0C309.818,327.01,308.479,325.67,308.479,324.01z
			 M308.479,303.01c0-1.66,1.34-3,3-3l0,0c1.66,0,3,1.34,3,3l0,0c0,1.66-1.34,3-3,3l0,0
			C309.818,306.01,308.479,304.67,308.479,303.01z M308.479,282.01c0-1.66,1.34-3,3-3l0,0c1.66,0,3,1.34,3,3l0,0c0,1.65-1.34,3-3,3
			l0,0C309.818,285.01,308.479,283.66,308.479,282.01z M308.479,261.01c0-1.66,1.34-3,3-3l0,0c1.66,0,3,1.34,3,3l0,0
			c0,1.65-1.34,3-3,3l0,0C309.818,264.01,308.479,262.66,308.479,261.01z M308.479,240c0-1.65,1.34-3,3-3l0,0c1.66,0,3,1.35,3,3l0,0
			c0,1.66-1.34,3-3,3l0,0C309.818,243,308.479,241.66,308.479,240z M308.479,219c0-1.66,1.34-3,3-3l0,0c1.66,0,3,1.34,3,3l0,0
			c0,1.66-1.34,3-3,3l0,0C309.818,222,308.479,220.66,308.479,219z M308.479,198c0-1.66,1.34-3,3-3l0,0c1.66,0,3,1.34,3,3l0,0
			c0,1.66-1.34,3-3,3l0,0C309.818,201,308.479,199.66,308.479,198z M308.479,177c0-1.66,1.34-3,3-3l0,0c1.66,0,3,1.34,3,3l0,0
			c0,1.65-1.34,3-3,3l0,0C309.818,180,308.479,178.65,308.479,177z M308.479,155.99c0-1.65,1.34-3,3-3l0,0c1.66,0,3,1.35,3,3l0,0
			c0,1.66-1.34,3-3,3l0,0C309.818,158.99,308.479,157.65,308.479,155.99z M308.479,134.99c0-1.65,1.34-3,3-3l0,0c1.66,0,3,1.35,3,3
			l0,0c0,1.66-1.34,3-3,3l0,0C309.818,137.99,308.479,136.65,308.479,134.99z M308.479,113.99c0-1.66,1.34-3,3-3l0,0
			c1.66,0,3,1.34,3,3l0,0c0,1.66-1.34,3-3,3l0,0C309.818,116.99,308.479,115.65,308.479,113.99z M308.479,92.99c0-1.66,1.34-3,3-3
			l0,0c1.66,0,3,1.34,3,3l0,0c0,1.65-1.34,3-3,3l0,0C309.818,95.99,308.479,94.64,308.479,92.99z M308.479,71.99c0-1.66,1.34-3,3-3
			l0,0c1.66,0,3,1.34,3,3l0,0c0,1.65-1.34,3-3,3l0,0C309.818,74.99,308.479,73.64,308.479,71.99z M308.479,50.98c0-1.65,1.34-3,3-3
			l0,0c1.66,0,3,1.35,3,3l0,0c0,1.66-1.34,3-3,3l0,0C309.818,53.98,308.479,52.64,308.479,50.98z M308.479,29.98c0-1.66,1.34-3,3-3
			l0,0c1.66,0,3,1.34,3,3l0,0c0,1.66-1.34,3-3,3l0,0C309.818,32.98,308.479,31.64,308.479,29.98z M308.479,8.98c0-1.66,1.34-3,3-3
			l0,0c1.66,0,3,1.34,3,3l0,0c0,1.65-1.34,3-3,3l0,0C309.818,11.98,308.479,10.63,308.479,8.98z"/>
		<path fill="#008CFF" d="M327.66,387.02c0-1.659,1.35-3,3-3l0,0c1.658,0,3,1.341,3,3l0,0c0,1.66-1.342,3-3,3l0,0
			C329.01,390.02,327.66,388.68,327.66,387.02z M327.66,366.02c0-1.659,1.35-3,3-3l0,0c1.658,0,3,1.341,3,3l0,0c0,1.65-1.342,3-3,3
			l0,0C329.01,369.02,327.66,367.67,327.66,366.02z M327.66,345.02c0-1.659,1.35-3,3-3l0,0c1.658,0,3,1.341,3,3l0,0
			c0,1.65-1.342,3-3,3l0,0C329.01,348.02,327.66,346.67,327.66,345.02z M327.66,324.01c0-1.649,1.35-3,3-3l0,0c1.658,0,3,1.351,3,3
			l0,0c0,1.66-1.342,3-3,3l0,0C329.01,327.01,327.66,325.67,327.66,324.01z M327.66,303.01c0-1.66,1.35-3,3-3l0,0
			c1.658,0,3,1.34,3,3l0,0c0,1.66-1.342,3-3,3l0,0C329.01,306.01,327.66,304.67,327.66,303.01z M327.66,282.01c0-1.66,1.35-3,3-3
			l0,0c1.658,0,3,1.34,3,3l0,0c0,1.65-1.342,3-3,3l0,0C329.01,285.01,327.66,283.66,327.66,282.01z M327.66,261.01
			c0-1.66,1.35-3,3-3l0,0c1.658,0,3,1.34,3,3l0,0c0,1.65-1.342,3-3,3l0,0C329.01,264.01,327.66,262.66,327.66,261.01z M327.66,240
			c0-1.65,1.35-3,3-3l0,0c1.658,0,3,1.35,3,3l0,0c0,1.66-1.342,3-3,3l0,0C329.01,243,327.66,241.66,327.66,240z M327.66,219
			c0-1.66,1.35-3,3-3l0,0c1.658,0,3,1.34,3,3l0,0c0,1.66-1.342,3-3,3l0,0C329.01,222,327.66,220.66,327.66,219z M327.66,198
			c0-1.66,1.35-3,3-3l0,0c1.658,0,3,1.34,3,3l0,0c0,1.66-1.342,3-3,3l0,0C329.01,201,327.66,199.66,327.66,198z M327.66,177
			c0-1.66,1.35-3,3-3l0,0c1.658,0,3,1.34,3,3l0,0c0,1.65-1.342,3-3,3l0,0C329.01,180,327.66,178.65,327.66,177z M327.66,155.99
			c0-1.65,1.35-3,3-3l0,0c1.658,0,3,1.35,3,3l0,0c0,1.66-1.342,3-3,3l0,0C329.01,158.99,327.66,157.65,327.66,155.99z
			 M327.66,134.99c0-1.65,1.35-3,3-3l0,0c1.658,0,3,1.35,3,3l0,0c0,1.66-1.342,3-3,3l0,0C329.01,137.99,327.66,136.65,327.66,134.99
			z M327.66,113.99c0-1.66,1.35-3,3-3l0,0c1.658,0,3,1.34,3,3l0,0c0,1.66-1.342,3-3,3l0,0
			C329.01,116.99,327.66,115.65,327.66,113.99z M327.66,92.99c0-1.66,1.35-3,3-3l0,0c1.658,0,3,1.34,3,3l0,0c0,1.65-1.342,3-3,3l0,0
			C329.01,95.99,327.66,94.64,327.66,92.99z M327.66,71.99c0-1.66,1.35-3,3-3l0,0c1.658,0,3,1.34,3,3l0,0c0,1.65-1.342,3-3,3l0,0
			C329.01,74.99,327.66,73.64,327.66,71.99z M327.66,50.98c0-1.65,1.35-3,3-3l0,0c1.658,0,3,1.35,3,3l0,0c0,1.66-1.342,3-3,3l0,0
			C329.01,53.98,327.66,52.64,327.66,50.98z M327.66,29.98c0-1.66,1.35-3,3-3l0,0c1.658,0,3,1.34,3,3l0,0c0,1.66-1.342,3-3,3l0,0
			C329.01,32.98,327.66,31.64,327.66,29.98z M327.66,8.98c0-1.66,1.35-3,3-3l0,0c1.658,0,3,1.34,3,3l0,0c0,1.65-1.342,3-3,3l0,0
			C329.01,11.98,327.66,10.63,327.66,8.98z"/>
		<path fill="#008CFF" d="M348.439,387.02c0-1.659,1.351-3,3-3l0,0c1.66,0,3,1.341,3,3l0,0c0,1.66-1.34,3-3,3l0,0
			C349.79,390.02,348.439,388.68,348.439,387.02z M348.439,366.02c0-1.659,1.351-3,3-3l0,0c1.66,0,3,1.341,3,3l0,0
			c0,1.65-1.34,3-3,3l0,0C349.79,369.02,348.439,367.67,348.439,366.02z M348.439,345.02c0-1.659,1.351-3,3-3l0,0
			c1.66,0,3,1.341,3,3l0,0c0,1.65-1.34,3-3,3l0,0C349.79,348.02,348.439,346.67,348.439,345.02z M348.439,324.01
			c0-1.649,1.351-3,3-3l0,0c1.66,0,3,1.351,3,3l0,0c0,1.66-1.34,3-3,3l0,0C349.79,327.01,348.439,325.67,348.439,324.01z
			 M348.439,303.01c0-1.66,1.351-3,3-3l0,0c1.66,0,3,1.34,3,3l0,0c0,1.66-1.34,3-3,3l0,0
			C349.79,306.01,348.439,304.67,348.439,303.01z M348.439,282.01c0-1.66,1.351-3,3-3l0,0c1.66,0,3,1.34,3,3l0,0c0,1.65-1.34,3-3,3
			l0,0C349.79,285.01,348.439,283.66,348.439,282.01z M348.439,261.01c0-1.66,1.351-3,3-3l0,0c1.66,0,3,1.34,3,3l0,0
			c0,1.65-1.34,3-3,3l0,0C349.79,264.01,348.439,262.66,348.439,261.01z M348.439,240c0-1.65,1.351-3,3-3l0,0c1.66,0,3,1.35,3,3l0,0
			c0,1.66-1.34,3-3,3l0,0C349.79,243,348.439,241.66,348.439,240z M348.439,219c0-1.66,1.351-3,3-3l0,0c1.66,0,3,1.34,3,3l0,0
			c0,1.66-1.34,3-3,3l0,0C349.79,222,348.439,220.66,348.439,219z M348.439,198c0-1.66,1.351-3,3-3l0,0c1.66,0,3,1.34,3,3l0,0
			c0,1.66-1.34,3-3,3l0,0C349.79,201,348.439,199.66,348.439,198z M348.439,177c0-1.66,1.351-3,3-3l0,0c1.66,0,3,1.34,3,3l0,0
			c0,1.65-1.34,3-3,3l0,0C349.79,180,348.439,178.65,348.439,177z M348.439,155.99c0-1.65,1.351-3,3-3l0,0c1.66,0,3,1.35,3,3l0,0
			c0,1.66-1.34,3-3,3l0,0C349.79,158.99,348.439,157.65,348.439,155.99z M348.439,134.99c0-1.65,1.351-3,3-3l0,0c1.66,0,3,1.35,3,3
			l0,0c0,1.66-1.34,3-3,3l0,0C349.79,137.99,348.439,136.65,348.439,134.99z M348.439,113.99c0-1.66,1.351-3,3-3l0,0
			c1.66,0,3,1.34,3,3l0,0c0,1.66-1.34,3-3,3l0,0C349.79,116.99,348.439,115.65,348.439,113.99z M348.439,92.99c0-1.66,1.351-3,3-3
			l0,0c1.66,0,3,1.34,3,3l0,0c0,1.65-1.34,3-3,3l0,0C349.79,95.99,348.439,94.64,348.439,92.99z M348.439,71.99c0-1.66,1.351-3,3-3
			l0,0c1.66,0,3,1.34,3,3l0,0c0,1.65-1.34,3-3,3l0,0C349.79,74.99,348.439,73.64,348.439,71.99z M348.439,50.98c0-1.65,1.351-3,3-3
			l0,0c1.66,0,3,1.35,3,3l0,0c0,1.66-1.34,3-3,3l0,0C349.79,53.98,348.439,52.64,348.439,50.98z M348.439,29.98c0-1.66,1.351-3,3-3
			l0,0c1.66,0,3,1.34,3,3l0,0c0,1.66-1.34,3-3,3l0,0C349.79,32.98,348.439,31.64,348.439,29.98z M348.439,8.98c0-1.66,1.351-3,3-3
			l0,0c1.66,0,3,1.34,3,3l0,0c0,1.65-1.34,3-3,3l0,0C349.79,11.98,348.439,10.63,348.439,8.98z"/>
		<path fill="#008CFF" d="M369.221,387.02c0-1.659,1.34-3,3-3l0,0c1.659,0,3,1.341,3,3l0,0c0,1.66-1.341,3-3,3l0,0
			C370.561,390.02,369.221,388.68,369.221,387.02z M369.221,366.02c0-1.659,1.34-3,3-3l0,0c1.659,0,3,1.341,3,3l0,0
			c0,1.65-1.341,3-3,3l0,0C370.561,369.02,369.221,367.67,369.221,366.02z M369.221,345.02c0-1.659,1.34-3,3-3l0,0
			c1.659,0,3,1.341,3,3l0,0c0,1.65-1.341,3-3,3l0,0C370.561,348.02,369.221,346.67,369.221,345.02z M369.221,324.01
			c0-1.649,1.34-3,3-3l0,0c1.659,0,3,1.351,3,3l0,0c0,1.66-1.341,3-3,3l0,0C370.561,327.01,369.221,325.67,369.221,324.01z
			 M369.221,303.01c0-1.66,1.34-3,3-3l0,0c1.659,0,3,1.34,3,3l0,0c0,1.66-1.341,3-3,3l0,0
			C370.561,306.01,369.221,304.67,369.221,303.01z M369.221,282.01c0-1.66,1.34-3,3-3l0,0c1.659,0,3,1.34,3,3l0,0
			c0,1.65-1.341,3-3,3l0,0C370.561,285.01,369.221,283.66,369.221,282.01z M369.221,261.01c0-1.66,1.34-3,3-3l0,0
			c1.659,0,3,1.34,3,3l0,0c0,1.65-1.341,3-3,3l0,0C370.561,264.01,369.221,262.66,369.221,261.01z M369.221,240c0-1.65,1.34-3,3-3
			l0,0c1.659,0,3,1.35,3,3l0,0c0,1.66-1.341,3-3,3l0,0C370.561,243,369.221,241.66,369.221,240z M369.221,219c0-1.66,1.34-3,3-3l0,0
			c1.659,0,3,1.34,3,3l0,0c0,1.66-1.341,3-3,3l0,0C370.561,222,369.221,220.66,369.221,219z M369.221,198c0-1.66,1.34-3,3-3l0,0
			c1.659,0,3,1.34,3,3l0,0c0,1.66-1.341,3-3,3l0,0C370.561,201,369.221,199.66,369.221,198z M369.221,177c0-1.66,1.34-3,3-3l0,0
			c1.659,0,3,1.34,3,3l0,0c0,1.65-1.341,3-3,3l0,0C370.561,180,369.221,178.65,369.221,177z M369.221,155.99c0-1.65,1.34-3,3-3l0,0
			c1.659,0,3,1.35,3,3l0,0c0,1.66-1.341,3-3,3l0,0C370.561,158.99,369.221,157.65,369.221,155.99z M369.221,134.99
			c0-1.65,1.34-3,3-3l0,0c1.659,0,3,1.35,3,3l0,0c0,1.66-1.341,3-3,3l0,0C370.561,137.99,369.221,136.65,369.221,134.99z
			 M369.221,113.99c0-1.66,1.34-3,3-3l0,0c1.659,0,3,1.34,3,3l0,0c0,1.66-1.341,3-3,3l0,0
			C370.561,116.99,369.221,115.65,369.221,113.99z M369.221,92.99c0-1.66,1.34-3,3-3l0,0c1.659,0,3,1.34,3,3l0,0c0,1.65-1.341,3-3,3
			l0,0C370.561,95.99,369.221,94.64,369.221,92.99z M369.221,71.99c0-1.66,1.34-3,3-3l0,0c1.659,0,3,1.34,3,3l0,0
			c0,1.65-1.341,3-3,3l0,0C370.561,74.99,369.221,73.64,369.221,71.99z M369.221,50.98c0-1.65,1.34-3,3-3l0,0c1.659,0,3,1.35,3,3
			l0,0c0,1.66-1.341,3-3,3l0,0C370.561,53.98,369.221,52.64,369.221,50.98z M369.221,29.98c0-1.66,1.34-3,3-3l0,0
			c1.659,0,3,1.34,3,3l0,0c0,1.66-1.341,3-3,3l0,0C370.561,32.98,369.221,31.64,369.221,29.98z M369.221,8.98c0-1.66,1.34-3,3-3l0,0
			c1.659,0,3,1.34,3,3l0,0c0,1.65-1.341,3-3,3l0,0C370.561,11.98,369.221,10.63,369.221,8.98z"/>
		<path fill="#008CFF" d="M390,387.02c0-1.659,1.34-3,3-3l0,0c1.66,0,3,1.341,3,3l0,0c0,1.66-1.34,3-3,3l0,0
			C391.34,390.02,390,388.68,390,387.02z M390,366.02c0-1.659,1.34-3,3-3l0,0c1.66,0,3,1.341,3,3l0,0c0,1.66-1.34,3-3,3l0,0
			C391.34,369.02,390,367.68,390,366.02z M390,345.02c0-1.659,1.34-3,3-3l0,0c1.66,0,3,1.341,3,3l0,0c0,1.65-1.34,3-3,3l0,0
			C391.34,348.02,390,346.67,390,345.02z M390,324.01c0-1.649,1.34-3,3-3l0,0c1.66,0,3,1.351,3,3l0,0c0,1.66-1.34,3-3,3l0,0
			C391.34,327.01,390,325.67,390,324.01z M390,303.01c0-1.66,1.34-3,3-3l0,0c1.66,0,3,1.34,3,3l0,0c0,1.66-1.34,3-3,3l0,0
			C391.34,306.01,390,304.67,390,303.01z M390,282.01c0-1.66,1.34-3,3-3l0,0c1.66,0,3,1.34,3,3l0,0c0,1.65-1.34,3-3,3l0,0
			C391.34,285.01,390,283.66,390,282.01z M390,261.01c0-1.66,1.34-3,3-3l0,0c1.66,0,3,1.34,3,3l0,0c0,1.65-1.34,3-3,3l0,0
			C391.34,264.01,390,262.66,390,261.01z M390,240c0-1.65,1.34-3,3-3l0,0c1.66,0,3,1.35,3,3l0,0c0,1.66-1.34,3-3,3l0,0
			C391.34,243,390,241.66,390,240z M390,219c0-1.65,1.34-3,3-3l0,0c1.66,0,3,1.35,3,3l0,0c0,1.66-1.34,3-3,3l0,0
			C391.34,222,390,220.66,390,219z M390,198c0-1.66,1.34-3,3-3l0,0c1.66,0,3,1.34,3,3l0,0c0,1.66-1.34,3-3,3l0,0
			C391.34,201,390,199.66,390,198z M390,177c0-1.66,1.34-3,3-3l0,0c1.66,0,3,1.34,3,3l0,0c0,1.65-1.34,3-3,3l0,0
			C391.34,180,390,178.65,390,177z M390,156c0-1.66,1.34-3,3-3l0,0c1.66,0,3,1.34,3,3l0,0c0,1.65-1.34,3-3,3l0,0
			C391.34,159,390,157.65,390,156z M390,134.99c0-1.65,1.34-3,3-3l0,0c1.66,0,3,1.35,3,3l0,0c0,1.66-1.34,3-3,3l0,0
			C391.34,137.99,390,136.65,390,134.99z M390,113.99c0-1.66,1.34-3,3-3l0,0c1.66,0,3,1.34,3,3l0,0c0,1.66-1.34,3-3,3l0,0
			C391.34,116.99,390,115.65,390,113.99z M390,92.99c0-1.66,1.34-3,3-3l0,0c1.66,0,3,1.34,3,3l0,0c0,1.66-1.34,3-3,3l0,0
			C391.34,95.99,390,94.65,390,92.99z M390,71.99c0-1.66,1.34-3,3-3l0,0c1.66,0,3,1.34,3,3l0,0c0,1.65-1.34,3-3,3l0,0
			C391.34,74.99,390,73.64,390,71.99z M390,50.98c0-1.65,1.34-3,3-3l0,0c1.66,0,3,1.35,3,3l0,0c0,1.66-1.34,3-3,3l0,0
			C391.34,53.98,390,52.64,390,50.98z M390,29.98c0-1.66,1.34-3,3-3l0,0c1.66,0,3,1.34,3,3l0,0c0,1.66-1.34,3-3,3l0,0
			C391.34,32.98,390,31.64,390,29.98z M390,8.98c0-1.66,1.34-3,3-3l0,0c1.66,0,3,1.34,3,3l0,0c0,1.66-1.34,3-3,3l0,0
			C391.34,11.98,390,10.64,390,8.98z"/>
	</g>
</g>
</svg>
